<svg xmlns="http://www.w3.org/2000/svg" xmlns:xlink="http://www.w3.org/1999/xlink" width="166" zoomAndPan="magnify" viewBox="0 0 124.5 49.499998" height="66" preserveAspectRatio="xMidYMid meet" version="1.0"><defs><g/></defs><g fill="#000000" fill-opacity="1"><g transform="translate(16.028705, 43.428426)"><g><path d="M 1.824219 -0.207031 C 1.824219 -0.0507812 1.957031 0.078125 2.121094 0.078125 C 2.277344 0.078125 2.398438 -0.0507812 2.398438 -0.207031 L 2.398438 -5.578125 L 3.675781 -5.578125 C 3.839844 -5.578125 3.972656 -5.699219 3.972656 -5.847656 C 3.972656 -6.011719 3.832031 -6.136719 3.675781 -6.136719 L 0.554688 -6.136719 C 0.390625 -6.136719 0.261719 -5.980469 0.261719 -5.847656 C 0.261719 -5.699219 0.382812 -5.578125 0.554688 -5.578125 L 1.824219 -5.578125 Z M 1.824219 -0.207031 "/></g></g></g><g fill="#000000" fill-opacity="1"><g transform="translate(21.954412, 43.428426)"><g><path d="M 4.441406 -4.421875 C 4.441406 -5.273438 3.988281 -6.136719 2.574219 -6.136719 L 1.027344 -6.136719 C 0.84375 -6.136719 0.679688 -5.96875 0.679688 -5.769531 L 0.679688 -0.226562 C 0.679688 -0.0507812 0.816406 0.078125 0.964844 0.078125 C 1.128906 0.078125 1.261719 -0.0625 1.261719 -0.226562 L 1.261719 -2.761719 L 2.390625 -2.761719 L 3.980469 -0.0625 C 4.03125 0.015625 4.117188 0.0703125 4.214844 0.0703125 C 4.328125 0.0703125 4.527344 -0.0429688 4.527344 -0.191406 C 4.527344 -0.261719 4.511719 -0.332031 4.492188 -0.375 L 4.5 -0.363281 L 3.03125 -2.78125 C 3.894531 -2.953125 4.441406 -3.519531 4.441406 -4.421875 Z M 3.859375 -4.421875 C 3.859375 -3.691406 3.414062 -3.3125 2.589844 -3.3125 L 1.261719 -3.3125 L 1.261719 -5.578125 L 2.539062 -5.578125 C 3.625 -5.578125 3.859375 -4.980469 3.859375 -4.421875 Z M 3.859375 -4.421875 "/></g></g></g><g fill="#000000" fill-opacity="1"><g transform="translate(28.679424, 43.428426)"><g><path d="M 1.234375 -1.417969 L 3.570312 -1.417969 L 3.972656 -0.128906 C 4.007812 -0.0078125 4.144531 0.078125 4.25 0.078125 C 4.421875 0.078125 4.554688 -0.0351562 4.554688 -0.207031 C 4.554688 -0.242188 4.546875 -0.304688 4.546875 -0.320312 L 2.816406 -5.796875 C 2.738281 -6.03125 2.625 -6.222656 2.40625 -6.222656 C 2.179688 -6.222656 2.078125 -6.039062 2.007812 -5.796875 L 0.277344 -0.320312 C 0.269531 -0.296875 0.261719 -0.234375 0.261719 -0.207031 C 0.261719 -0.0351562 0.398438 0.078125 0.566406 0.078125 C 0.660156 0.078125 0.789062 -0.0273438 0.84375 -0.128906 Z M 2.40625 -5.273438 L 3.40625 -1.980469 L 1.398438 -1.980469 Z M 2.40625 -5.273438 "/></g></g></g><g fill="#000000" fill-opacity="1"><g transform="translate(35.178547, 43.428426)"><g><path d="M 0.757812 -6.003906 C 0.703125 -6.109375 0.574219 -6.222656 0.476562 -6.222656 C 0.3125 -6.222656 0.171875 -6.109375 0.171875 -5.933594 C 0.171875 -5.902344 0.183594 -5.839844 0.191406 -5.8125 L 1.921875 -0.339844 C 1.988281 -0.09375 2.09375 0.078125 2.320312 0.078125 C 2.539062 0.078125 2.652344 -0.105469 2.730469 -0.339844 L 4.457031 -5.8125 C 4.457031 -5.824219 4.464844 -5.890625 4.464844 -5.933594 C 4.464844 -6.109375 4.335938 -6.222656 4.164062 -6.222656 C 4.058594 -6.222656 3.917969 -6.136719 3.882812 -6.003906 L 2.320312 -0.859375 Z M 0.757812 -6.003906 "/></g></g></g><g fill="#000000" fill-opacity="1"><g transform="translate(41.503909, 43.428426)"><g><path d="M 3.824219 -0.304688 C 3.824219 -0.441406 3.683594 -0.566406 3.535156 -0.566406 L 1.261719 -0.566406 L 1.261719 -2.808594 L 3.277344 -2.808594 C 3.433594 -2.808594 3.554688 -2.929688 3.554688 -3.085938 C 3.554688 -3.242188 3.425781 -3.363281 3.277344 -3.363281 L 1.261719 -3.363281 L 1.261719 -5.578125 L 3.449219 -5.578125 C 3.605469 -5.578125 3.726562 -5.691406 3.726562 -5.839844 C 3.726562 -6.003906 3.605469 -6.136719 3.449219 -6.136719 L 1.042969 -6.136719 C 0.835938 -6.136719 0.6875 -5.960938 0.6875 -5.777344 L 0.6875 -0.355469 C 0.6875 -0.0859375 0.921875 -0.0078125 1.183594 -0.0078125 L 3.535156 -0.0078125 C 3.691406 -0.0078125 3.824219 -0.128906 3.824219 -0.304688 Z M 3.824219 -0.304688 "/></g></g></g><g fill="#000000" fill-opacity="1"><g transform="translate(47.351422, 43.428426)"><g><path d="M 3.796875 -0.285156 C 3.796875 -0.433594 3.667969 -0.554688 3.527344 -0.554688 L 1.261719 -0.554688 L 1.261719 -5.933594 C 1.261719 -6.082031 1.136719 -6.222656 0.980469 -6.222656 C 0.816406 -6.222656 0.6875 -6.082031 0.6875 -5.933594 L 0.6875 -0.339844 C 0.6875 -0.148438 0.84375 -0.0078125 1.027344 -0.0078125 L 3.527344 -0.0078125 C 3.675781 -0.0078125 3.796875 -0.128906 3.796875 -0.285156 Z M 3.796875 -0.285156 "/></g></g></g><g fill="#000000" fill-opacity="1"><g transform="translate(52.973045, 43.428426)"><g/></g></g><g fill="#000000" fill-opacity="1"><g transform="translate(57.308829, 43.428426)"><g><path d="M 2.355469 -2.320312 C 3.527344 -2.320312 4.277344 -2.988281 4.277344 -4.207031 C 4.277344 -5.214844 3.773438 -6.136719 2.355469 -6.136719 L 1.050781 -6.136719 C 0.851562 -6.136719 0.6875 -5.96875 0.6875 -5.769531 L 0.6875 -0.226562 C 0.6875 -0.0507812 0.824219 0.078125 0.972656 0.078125 C 1.136719 0.078125 1.261719 -0.0625 1.261719 -0.226562 L 1.261719 -2.320312 Z M 1.261719 -5.578125 L 2.355469 -5.578125 C 3.449219 -5.578125 3.703125 -4.890625 3.703125 -4.214844 C 3.703125 -3.300781 3.242188 -2.875 2.355469 -2.875 L 1.261719 -2.875 Z M 1.261719 -5.578125 "/></g></g></g><g fill="#000000" fill-opacity="1"><g transform="translate(63.642874, 43.428426)"><g><path d="M 3.796875 -0.285156 C 3.796875 -0.433594 3.667969 -0.554688 3.527344 -0.554688 L 1.261719 -0.554688 L 1.261719 -5.933594 C 1.261719 -6.082031 1.136719 -6.222656 0.980469 -6.222656 C 0.816406 -6.222656 0.6875 -6.082031 0.6875 -5.933594 L 0.6875 -0.339844 C 0.6875 -0.148438 0.84375 -0.0078125 1.027344 -0.0078125 L 3.527344 -0.0078125 C 3.675781 -0.0078125 3.796875 -0.128906 3.796875 -0.285156 Z M 3.796875 -0.285156 "/></g></g></g><g fill="#000000" fill-opacity="1"><g transform="translate(69.264496, 43.428426)"><g><path d="M 1.234375 -1.417969 L 3.570312 -1.417969 L 3.972656 -0.128906 C 4.007812 -0.0078125 4.144531 0.078125 4.25 0.078125 C 4.421875 0.078125 4.554688 -0.0351562 4.554688 -0.207031 C 4.554688 -0.242188 4.546875 -0.304688 4.546875 -0.320312 L 2.816406 -5.796875 C 2.738281 -6.03125 2.625 -6.222656 2.40625 -6.222656 C 2.179688 -6.222656 2.078125 -6.039062 2.007812 -5.796875 L 0.277344 -0.320312 C 0.269531 -0.296875 0.261719 -0.234375 0.261719 -0.207031 C 0.261719 -0.0351562 0.398438 0.078125 0.566406 0.078125 C 0.660156 0.078125 0.789062 -0.0273438 0.84375 -0.128906 Z M 2.40625 -5.273438 L 3.40625 -1.980469 L 1.398438 -1.980469 Z M 2.40625 -5.273438 "/></g></g></g><g fill="#000000" fill-opacity="1"><g transform="translate(75.763618, 43.428426)"><g><path d="M 4.25 0.078125 C 4.441406 0.078125 4.570312 -0.0625 4.570312 -0.242188 L 4.570312 -5.925781 C 4.570312 -6.082031 4.449219 -6.222656 4.292969 -6.222656 C 4.136719 -6.222656 3.996094 -6.082031 3.996094 -5.925781 L 3.996094 -1.070312 L 1.3125 -6.039062 C 1.25 -6.152344 1.128906 -6.222656 1 -6.222656 C 0.816406 -6.222656 0.679688 -6.082031 0.679688 -5.890625 L 0.679688 -0.21875 C 0.679688 -0.0507812 0.808594 0.078125 0.964844 0.078125 C 1.128906 0.078125 1.261719 -0.0507812 1.261719 -0.21875 L 1.261719 -5.050781 L 3.945312 -0.0859375 C 3.996094 0.015625 4.136719 0.078125 4.25 0.078125 Z M 4.25 0.078125 "/></g></g></g><g fill="#000000" fill-opacity="1"><g transform="translate(82.705833, 43.428426)"><g><path d="M 4.25 0.078125 C 4.441406 0.078125 4.570312 -0.0625 4.570312 -0.242188 L 4.570312 -5.925781 C 4.570312 -6.082031 4.449219 -6.222656 4.292969 -6.222656 C 4.136719 -6.222656 3.996094 -6.082031 3.996094 -5.925781 L 3.996094 -1.070312 L 1.3125 -6.039062 C 1.25 -6.152344 1.128906 -6.222656 1 -6.222656 C 0.816406 -6.222656 0.679688 -6.082031 0.679688 -5.890625 L 0.679688 -0.21875 C 0.679688 -0.0507812 0.808594 0.078125 0.964844 0.078125 C 1.128906 0.078125 1.261719 -0.0507812 1.261719 -0.21875 L 1.261719 -5.050781 L 3.945312 -0.0859375 C 3.996094 0.015625 4.136719 0.078125 4.25 0.078125 Z M 4.25 0.078125 "/></g></g></g><g fill="#000000" fill-opacity="1"><g transform="translate(89.648049, 43.428426)"><g><path d="M 3.824219 -0.304688 C 3.824219 -0.441406 3.683594 -0.566406 3.535156 -0.566406 L 1.261719 -0.566406 L 1.261719 -2.808594 L 3.277344 -2.808594 C 3.433594 -2.808594 3.554688 -2.929688 3.554688 -3.085938 C 3.554688 -3.242188 3.425781 -3.363281 3.277344 -3.363281 L 1.261719 -3.363281 L 1.261719 -5.578125 L 3.449219 -5.578125 C 3.605469 -5.578125 3.726562 -5.691406 3.726562 -5.839844 C 3.726562 -6.003906 3.605469 -6.136719 3.449219 -6.136719 L 1.042969 -6.136719 C 0.835938 -6.136719 0.6875 -5.960938 0.6875 -5.777344 L 0.6875 -0.355469 C 0.6875 -0.0859375 0.921875 -0.0078125 1.183594 -0.0078125 L 3.535156 -0.0078125 C 3.691406 -0.0078125 3.824219 -0.128906 3.824219 -0.304688 Z M 3.824219 -0.304688 "/></g></g></g><g fill="#000000" fill-opacity="1"><g transform="translate(95.495565, 43.428426)"><g><path d="M 4.441406 -4.421875 C 4.441406 -5.273438 3.988281 -6.136719 2.574219 -6.136719 L 1.027344 -6.136719 C 0.84375 -6.136719 0.679688 -5.96875 0.679688 -5.769531 L 0.679688 -0.226562 C 0.679688 -0.0507812 0.816406 0.078125 0.964844 0.078125 C 1.128906 0.078125 1.261719 -0.0625 1.261719 -0.226562 L 1.261719 -2.761719 L 2.390625 -2.761719 L 3.980469 -0.0625 C 4.03125 0.015625 4.117188 0.0703125 4.214844 0.0703125 C 4.328125 0.0703125 4.527344 -0.0429688 4.527344 -0.191406 C 4.527344 -0.261719 4.511719 -0.332031 4.492188 -0.375 L 4.5 -0.363281 L 3.03125 -2.78125 C 3.894531 -2.953125 4.441406 -3.519531 4.441406 -4.421875 Z M 3.859375 -4.421875 C 3.859375 -3.691406 3.414062 -3.3125 2.589844 -3.3125 L 1.261719 -3.3125 L 1.261719 -5.578125 L 2.539062 -5.578125 C 3.625 -5.578125 3.859375 -4.980469 3.859375 -4.421875 Z M 3.859375 -4.421875 "/></g></g></g><g fill="#2e96d6" fill-opacity="1"><g transform="translate(7.620651, 28.812138)"><g><path d="M 4.054688 1.195312 C 3.917969 0.832031 4.027344 -1.859375 4.25 -3.609375 C 4.804688 -8.136719 5.414062 -10.277344 8.054688 -16.96875 C 8.527344 -18.191406 8.914062 -19.300781 8.914062 -19.441406 C 8.914062 -19.550781 9 -19.71875 9.054688 -19.773438 C 9.359375 -20.023438 10.914062 -20.246094 15.636719 -20.71875 C 16.46875 -20.773438 16.609375 -20.941406 16.246094 -21.273438 C 16.136719 -21.386719 16.023438 -21.523438 16.023438 -21.609375 C 16.023438 -21.859375 15.664062 -21.96875 14.164062 -22.21875 C 12.527344 -22.496094 11.636719 -22.496094 9.691406 -22.273438 C 6.722656 -21.914062 3.386719 -21.050781 1.886719 -20.246094 C 1.167969 -19.859375 0.417969 -19.191406 0.277344 -18.773438 C 0.140625 -18.441406 0.445312 -17.859375 0.777344 -17.832031 C 0.917969 -17.804688 1 -17.691406 1.027344 -17.523438 C 1.054688 -17.386719 1.195312 -17.191406 1.332031 -17.136719 C 1.582031 -16.996094 1.75 -17.082031 4.527344 -18.300781 C 4.972656 -18.496094 5.359375 -18.636719 5.386719 -18.636719 C 5.386719 -18.636719 5.195312 -18.082031 4.914062 -17.414062 C 4.027344 -15.164062 2.722656 -10.664062 2.222656 -8.109375 C 1.554688 -4.804688 1.527344 -1.386719 2.109375 -0.167969 C 2.445312 0.472656 3.136719 1.25 3.445312 1.304688 C 4.082031 1.417969 4.136719 1.386719 4.054688 1.195312 Z M 6.832031 -18.523438 C 7.332031 -19.523438 7.359375 -19.386719 6.886719 -18.332031 C 6.664062 -17.832031 6.25 -16.804688 5.945312 -15.996094 C 5.636719 -15.21875 5.195312 -13.941406 4.914062 -13.191406 C 4.664062 -12.414062 4.445312 -11.859375 4.445312 -11.941406 C 4.445312 -12.332031 6.195312 -17.164062 6.832031 -18.523438 Z M 4.332031 -11.554688 C 4.386719 -11.71875 4.414062 -11.75 4.445312 -11.636719 C 4.445312 -11.527344 4.386719 -11.386719 4.332031 -11.277344 C 4.195312 -11.082031 4.195312 -11.25 4.332031 -11.554688 Z M 3.804688 -9.609375 C 3.804688 -9.75 3.832031 -9.777344 3.859375 -9.691406 C 3.886719 -9.609375 3.886719 -9.5 3.859375 -9.472656 C 3.804688 -9.441406 3.777344 -9.5 3.804688 -9.609375 Z M 2.554688 -1.527344 C 2.5 -1.472656 2.472656 -1.554688 2.472656 -1.667969 C 2.5 -1.804688 2.527344 -1.832031 2.554688 -1.75 C 2.582031 -1.667969 2.582031 -1.554688 2.554688 -1.527344 Z M 2.859375 -2.277344 C 2.859375 -1.332031 2.859375 -0.554688 2.832031 -0.554688 C 2.75 -0.554688 2.667969 -2.109375 2.75 -3.082031 C 2.859375 -5.054688 3.472656 -8.886719 3.636719 -8.722656 C 3.636719 -8.691406 3.609375 -8.359375 3.527344 -7.972656 C 3.136719 -6.332031 2.886719 -3.945312 2.859375 -2.277344 Z M 3.636719 -6.722656 C 3.582031 -6.472656 3.5 -5.664062 3.386719 -4.945312 C 3.304688 -4.222656 3.195312 -3.109375 3.136719 -2.472656 L 3.027344 -1.304688 L 3.082031 -2.667969 C 3.136719 -3.972656 3.5 -7 3.636719 -7.136719 C 3.667969 -7.164062 3.667969 -6.972656 3.636719 -6.722656 Z M 3.695312 -7.414062 C 3.667969 -7.777344 4.304688 -10.277344 4.859375 -12.027344 C 5.636719 -14.527344 7.277344 -18.773438 7.664062 -19.300781 C 7.75 -19.414062 7.527344 -18.773438 7.164062 -17.914062 C 6.414062 -16.109375 5.414062 -13.386719 4.886719 -11.75 C 4.695312 -11.136719 4.332031 -9.859375 4.109375 -8.914062 C 3.886719 -7.972656 3.695312 -7.277344 3.695312 -7.414062 Z M 3.695312 -7.414062 "/></g></g></g><g fill="#2e96d6" fill-opacity="1"><g transform="translate(15.478825, 28.812138)"><g><path d="M 6.804688 -9.027344 C 8.664062 -10.164062 10.582031 -11.554688 11.859375 -12.664062 C 14.359375 -14.804688 15.804688 -17.082031 15.664062 -18.609375 C 15.636719 -19.082031 15.109375 -19.941406 14.691406 -20.21875 C 14.527344 -20.300781 14.304688 -20.550781 14.164062 -20.773438 C 13.46875 -21.828125 12.636719 -22.078125 11.332031 -21.664062 C 10.664062 -21.441406 9.472656 -20.71875 8.722656 -20.109375 C 8.441406 -19.886719 8.191406 -19.71875 8.191406 -19.71875 C 8.164062 -19.746094 8.25 -20.050781 8.359375 -20.414062 C 8.441406 -20.800781 8.527344 -21.191406 8.527344 -21.300781 C 8.5 -21.523438 8.054688 -22.050781 7.886719 -22.023438 C 7.804688 -22.023438 7.75 -22.078125 7.75 -22.136719 C 7.75 -22.21875 7.691406 -22.246094 7.636719 -22.191406 C 7.609375 -22.164062 7.527344 -22.246094 7.472656 -22.414062 C 7.277344 -23.050781 6.695312 -22.996094 6.082031 -22.246094 C 4.722656 -20.523438 2.886719 -15.664062 1.667969 -10.582031 L 1.140625 -8.359375 L 0.75 -8.222656 C 0.554688 -8.136719 0.25 -8.027344 0.109375 -8 C -0.0546875 -7.941406 -0.195312 -7.832031 -0.222656 -7.75 C -0.277344 -7.472656 0.0273438 -6.972656 0.390625 -6.804688 C 0.777344 -6.609375 0.890625 -6.304688 0.832031 -5.527344 C 0.832031 -5.222656 0.890625 -4.277344 0.945312 -3.417969 C 1.109375 -1.667969 1.332031 -0.804688 1.886719 0.222656 C 2.25 0.890625 2.859375 1.609375 3.027344 1.609375 C 3.082031 1.609375 3.25 1.722656 3.417969 1.832031 C 3.722656 2.082031 3.777344 2.082031 3.917969 1.917969 C 4 1.804688 3.945312 1.695312 3.804688 1.5 C 3.445312 1.054688 3.195312 -0.5 3.167969 -2.027344 C 3.167969 -3.304688 3.195312 -3.582031 3.417969 -4.945312 L 3.554688 -5.695312 L 3.945312 -5.722656 C 4.945312 -5.75 6.886719 -5.25 9.414062 -4.304688 C 11 -3.695312 11.859375 -3.5 11.96875 -3.75 C 12.136719 -4.136719 10.359375 -5.804688 9.25 -6.304688 C 8.472656 -6.636719 5.695312 -7.609375 5.109375 -7.722656 C 4.832031 -7.777344 5.027344 -7.914062 6.804688 -9.027344 Z M 1.75 -5.222656 C 1.722656 -5.195312 1.695312 -5.25 1.667969 -5.359375 C 1.667969 -5.5 1.695312 -5.527344 1.722656 -5.445312 C 1.777344 -5.359375 1.777344 -5.25 1.75 -5.222656 Z M 2.054688 -5.082031 L 1.945312 -4.472656 L 1.972656 -5.027344 C 1.972656 -5.332031 2 -5.636719 2.054688 -5.695312 C 2.082031 -5.75 2.136719 -5.777344 2.136719 -5.75 C 2.136719 -5.722656 2.082031 -5.414062 2.054688 -5.082031 Z M 14.21875 -17.191406 C 14.164062 -16.996094 13.746094 -16.386719 13.332031 -15.832031 C 12.777344 -15.109375 12.71875 -15.054688 13.136719 -15.636719 C 13.441406 -16.082031 13.832031 -16.691406 13.996094 -16.996094 C 14.332031 -17.636719 14.441406 -17.71875 14.21875 -17.191406 Z M 13.609375 -17.804688 C 13.71875 -18.109375 13.832031 -18.300781 13.859375 -18.273438 C 13.886719 -18.246094 13.832031 -18.023438 13.691406 -17.773438 C 13.414062 -17.136719 13.359375 -17.164062 13.609375 -17.804688 Z M 14.027344 -18.023438 C 14.164062 -18.359375 14.277344 -18.496094 14.246094 -18.332031 C 14.21875 -18.164062 14.054688 -17.71875 13.832031 -17.304688 C 13.636719 -16.886719 13.332031 -16.414062 13.191406 -16.21875 C 12.96875 -15.96875 13.027344 -16.082031 13.332031 -16.664062 C 13.582031 -17.082031 13.886719 -17.71875 14.027344 -18.023438 Z M 10.859375 -18.050781 C 11.664062 -18.523438 12.886719 -19.023438 12.996094 -18.914062 C 13.027344 -18.886719 12.96875 -18.691406 12.859375 -18.441406 C 12.277344 -16.96875 10.886719 -15.21875 9 -13.496094 C 7.582031 -12.25 4.832031 -10.164062 4.804688 -10.386719 C 4.777344 -10.886719 6 -12.96875 7.441406 -14.832031 C 8.664062 -16.441406 9.554688 -17.273438 10.859375 -18.050781 Z M 6.609375 -15.523438 C 6.636719 -15.609375 6.695312 -15.691406 6.75 -15.691406 C 6.804688 -15.691406 6.804688 -15.636719 6.75 -15.523438 C 6.695312 -15.441406 6.609375 -15.359375 6.609375 -15.359375 C 6.582031 -15.359375 6.582031 -15.441406 6.609375 -15.523438 Z M 7.5 -21.300781 C 7.527344 -21.273438 7.359375 -20.828125 7.136719 -20.300781 C 6.914062 -19.773438 6.445312 -18.636719 6.082031 -17.773438 C 5.75 -16.914062 5.414062 -16.164062 5.359375 -16.136719 C 5.25 -16.054688 5.554688 -16.859375 6.664062 -19.496094 C 7.082031 -20.523438 7.472656 -21.328125 7.5 -21.300781 Z M 5.414062 -18.582031 C 5.472656 -18.773438 5.554688 -18.914062 5.582031 -18.914062 C 5.609375 -18.914062 5.582031 -18.773438 5.527344 -18.582031 C 5.445312 -18.386719 5.359375 -18.246094 5.332031 -18.246094 C 5.304688 -18.246094 5.359375 -18.386719 5.414062 -18.582031 Z M 2.5 -9.359375 C 2.472656 -9.277344 2.417969 -9.25 2.417969 -9.304688 C 2.417969 -9.359375 2.445312 -9.5 2.472656 -9.582031 C 2.527344 -9.691406 2.582031 -9.71875 2.582031 -9.664062 C 2.582031 -9.582031 2.554688 -9.472656 2.5 -9.359375 Z M 3.027344 -10.054688 C 2.75 -9 2.582031 -8.75 2.804688 -9.71875 C 3.082031 -10.859375 3.222656 -11.277344 3.25 -11.082031 C 3.25 -10.96875 3.167969 -10.527344 3.027344 -10.054688 Z M 3.417969 -9.804688 C 3.304688 -9.441406 3.222656 -9.277344 3.195312 -9.441406 C 3.195312 -9.609375 3.417969 -10.332031 3.472656 -10.277344 C 3.5 -10.25 3.472656 -10.054688 3.417969 -9.804688 Z M 3.027344 -11.359375 C 2.722656 -10.25 2.636719 -10.054688 2.636719 -10.191406 C 2.609375 -10.332031 3.082031 -12 3.25 -12.414062 C 3.445312 -12.941406 3.417969 -12.746094 3.027344 -11.359375 Z M 3.472656 -13.136719 C 3.417969 -13.414062 5.136719 -18.109375 5.277344 -18.109375 C 5.304688 -18.109375 5.195312 -17.832031 5.054688 -17.46875 C 4.914062 -17.136719 4.5 -15.996094 4.136719 -14.941406 C 3.777344 -13.914062 3.472656 -13.109375 3.472656 -13.136719 Z M 4.195312 -14.386719 C 4.945312 -16.71875 6.914062 -21.441406 7.136719 -21.441406 C 7.164062 -21.441406 7.109375 -21.21875 6.972656 -20.96875 C 6.554688 -20.109375 5.195312 -16.773438 4.5 -14.886719 C 3.695312 -12.609375 3.527344 -12.359375 4.195312 -14.386719 Z M 4.195312 -14.386719 "/></g></g></g><g fill="#2e96d6" fill-opacity="1"><g transform="translate(29.36238, 28.812138)"><g><path d="M -0.667969 0.140625 C -0.527344 0.25 -0.332031 0.332031 -0.222656 0.332031 C -0.109375 0.332031 0 0.417969 0 0.5 C 0 0.582031 0.0546875 0.667969 0.140625 0.695312 C 0.359375 0.804688 0.5 0.777344 1.859375 0.25 C 2.636719 -0.0273438 3.859375 -0.417969 4.609375 -0.609375 C 5.359375 -0.804688 6.027344 -0.972656 6.082031 -1 C 6.109375 -1.027344 6 -1.222656 5.777344 -1.417969 C 5.332031 -1.804688 5.304688 -1.804688 3.636719 -1.609375 C 3.222656 -1.554688 3.195312 -1.582031 3.136719 -1.832031 C 3.082031 -1.972656 3.082031 -2.25 3.109375 -2.445312 C 3.136719 -2.636719 3.222656 -3.359375 3.277344 -4.054688 C 3.527344 -7.277344 4.554688 -10.96875 6.664062 -16.246094 C 7.609375 -18.609375 8.136719 -20.191406 8.136719 -20.664062 C 8.136719 -20.886719 8.277344 -20.96875 9.136719 -21.246094 C 9.691406 -21.414062 10.527344 -21.609375 11 -21.636719 C 11.46875 -21.664062 11.859375 -21.71875 11.859375 -21.746094 C 11.859375 -21.96875 11.554688 -22.21875 11.21875 -22.300781 C 10.96875 -22.386719 9.859375 -22.441406 8.691406 -22.441406 C 6.886719 -22.441406 6.5 -22.414062 5.804688 -22.21875 C 5.027344 -22.023438 4.386719 -21.746094 4 -21.441406 C 3.722656 -21.246094 3.832031 -20.609375 4.136719 -20.609375 C 4.25 -20.609375 4.304688 -20.582031 4.277344 -20.496094 C 4.25 -20.441406 4.277344 -20.414062 4.332031 -20.414062 C 4.414062 -20.414062 4.414062 -20.332031 4.332031 -20.21875 C 4.136719 -19.832031 4.582031 -19.636719 5.109375 -19.886719 C 5.5 -20.082031 5.554688 -19.96875 5.277344 -19.441406 C 4.472656 -17.859375 2.886719 -13.71875 2.386719 -11.804688 C 1.695312 -9.332031 1.445312 -7.75 1.386719 -5.75 C 1.359375 -3.917969 1.359375 -3.777344 1.636719 -2.804688 C 1.777344 -2.222656 1.945312 -1.722656 1.972656 -1.636719 C 2 -1.527344 1.859375 -1.472656 1.386719 -1.417969 C 0.609375 -1.332031 -0.472656 -0.777344 -0.722656 -0.359375 C -0.890625 -0.109375 -0.890625 -0.0820312 -0.667969 0.140625 Z M 3.804688 -11.25 C 3.75 -11.109375 3.722656 -11.082031 3.722656 -11.191406 C 3.722656 -11.277344 3.75 -11.441406 3.804688 -11.554688 C 3.859375 -11.691406 3.886719 -11.71875 3.886719 -11.609375 C 3.886719 -11.527344 3.859375 -11.359375 3.804688 -11.25 Z M 4.109375 -12.25 C 4 -12.054688 4 -12.21875 4.109375 -12.527344 C 4.195312 -12.664062 4.222656 -12.664062 4.222656 -12.582031 C 4.222656 -12.46875 4.195312 -12.332031 4.109375 -12.25 Z M 4.554688 -13.527344 C 4.5 -13.441406 4.445312 -13.414062 4.445312 -13.46875 C 4.445312 -13.527344 4.5 -13.636719 4.554688 -13.746094 C 4.609375 -13.832031 4.636719 -13.859375 4.636719 -13.777344 C 4.636719 -13.71875 4.609375 -13.609375 4.554688 -13.527344 Z M 5.832031 -16.886719 C 5.722656 -16.773438 5.722656 -16.804688 5.777344 -16.941406 C 5.804688 -17.054688 5.859375 -17.109375 5.914062 -17.082031 C 5.945312 -17.054688 5.914062 -16.941406 5.832031 -16.886719 Z M 6.554688 -20.300781 C 6.609375 -20.386719 6.664062 -20.414062 6.664062 -20.359375 C 6.664062 -20.300781 6.609375 -20.164062 6.554688 -20.082031 C 6.5 -19.996094 6.445312 -19.96875 6.445312 -20.023438 C 6.445312 -20.082031 6.5 -20.21875 6.554688 -20.300781 Z M 5.777344 -18.496094 C 5.859375 -18.636719 5.914062 -18.71875 5.914062 -18.664062 C 5.914062 -18.609375 5.859375 -18.441406 5.777344 -18.273438 C 5.695312 -18.136719 5.609375 -18.082031 5.609375 -18.136719 C 5.609375 -18.191406 5.695312 -18.359375 5.777344 -18.496094 Z M 5.386719 -17.664062 C 5.445312 -17.746094 5.5 -17.773438 5.5 -17.691406 C 5.5 -17.636719 5.445312 -17.523438 5.386719 -17.441406 C 5.332031 -17.359375 5.304688 -17.332031 5.304688 -17.386719 C 5.304688 -17.441406 5.332031 -17.554688 5.386719 -17.664062 Z M 5.136719 -17.023438 C 5.222656 -17.164062 5.277344 -17.246094 5.277344 -17.164062 C 5.277344 -17.109375 5.222656 -16.941406 5.136719 -16.804688 C 5.054688 -16.664062 4.972656 -16.582031 4.972656 -16.636719 C 4.972656 -16.691406 5.054688 -16.859375 5.136719 -17.023438 Z M 4.859375 -16.386719 C 4.914062 -16.46875 4.972656 -16.496094 4.972656 -16.441406 C 4.972656 -16.386719 4.914062 -16.246094 4.859375 -16.164062 C 4.804688 -16.082031 4.75 -16.054688 4.75 -16.109375 C 4.75 -16.164062 4.804688 -16.304688 4.859375 -16.386719 Z M 4.664062 -15.859375 C 4.722656 -15.941406 4.75 -15.96875 4.75 -15.914062 C 4.75 -15.859375 4.722656 -15.71875 4.664062 -15.636719 C 4.582031 -15.554688 4.554688 -15.523438 4.554688 -15.582031 C 4.554688 -15.636719 4.582031 -15.773438 4.664062 -15.859375 Z M 4.332031 -14.996094 C 4.386719 -15.082031 4.445312 -15.109375 4.445312 -15.054688 C 4.445312 -14.996094 4.386719 -14.886719 4.332031 -14.804688 C 4.277344 -14.71875 4.222656 -14.691406 4.222656 -14.746094 C 4.222656 -14.804688 4.277344 -14.914062 4.332031 -14.996094 Z M 3.75 -13.414062 C 3.804688 -13.554688 3.886719 -13.746094 3.917969 -13.832031 C 4 -13.941406 4 -13.914062 3.945312 -13.746094 C 3.917969 -13.582031 3.832031 -13.386719 3.777344 -13.304688 C 3.722656 -13.191406 3.722656 -13.21875 3.75 -13.414062 Z M 3.554688 -12.777344 C 3.609375 -12.996094 3.695312 -13.082031 3.695312 -12.996094 C 3.695312 -12.914062 3.636719 -12.691406 3.554688 -12.527344 C 3.359375 -12.109375 3.359375 -12.304688 3.554688 -12.777344 Z M 3.082031 -11.25 C 3.082031 -11.386719 3.109375 -11.414062 3.136719 -11.332031 C 3.167969 -11.25 3.167969 -11.164062 3.136719 -11.109375 C 3.082031 -11.082031 3.054688 -11.136719 3.082031 -11.25 Z M 2.554688 -9.136719 C 2.554688 -9.25 2.582031 -9.277344 2.609375 -9.191406 C 2.636719 -9.136719 2.636719 -9.027344 2.609375 -9 C 2.554688 -8.972656 2.527344 -9.027344 2.554688 -9.136719 Z M 3.277344 -11.027344 C 3.472656 -11.75 4.027344 -13.441406 4.582031 -14.941406 C 4.886719 -15.804688 6.75 -20.164062 6.886719 -20.414062 C 7.136719 -20.773438 6.859375 -20.023438 5.832031 -17.636719 C 4.195312 -13.777344 3.277344 -10.941406 2.695312 -8.082031 C 2.554688 -7.304688 2.417969 -6.582031 2.386719 -6.445312 C 2.359375 -6.222656 2.359375 -6.222656 2.332031 -6.5 C 2.332031 -6.886719 2.945312 -9.859375 3.277344 -11.027344 Z M 2.304688 -5.886719 C 2.304688 -5.722656 2.304688 -5.445312 2.304688 -5.304688 C 2.277344 -5.136719 2.25 -5.277344 2.25 -5.582031 C 2.25 -5.914062 2.277344 -6.027344 2.304688 -5.886719 Z M 2.304688 -5.886719 "/></g></g></g><g fill="#2e96d6" fill-opacity="1"><g transform="translate(35.998812, 28.812138)"><g><path d="M 3.859375 2.75 C 3.945312 2.917969 4.332031 2.859375 4.386719 2.695312 C 4.414062 2.609375 4.386719 2.445312 4.332031 2.359375 C 4.222656 2.25 4.195312 1.609375 4.25 -0.304688 C 4.304688 -2.917969 4.386719 -3.5 4.582031 -3.554688 C 4.636719 -3.582031 5.027344 -3.667969 5.472656 -3.777344 C 7.777344 -4.304688 9.886719 -5.664062 12.636719 -8.414062 C 14.71875 -10.5 15.804688 -12.082031 16.46875 -14.082031 C 16.71875 -14.886719 16.746094 -15.136719 16.746094 -16.304688 C 16.746094 -17.582031 16.746094 -17.664062 16.414062 -18.332031 C 16.246094 -18.691406 15.832031 -19.359375 15.523438 -19.746094 C 14.304688 -21.359375 13.496094 -21.886719 11.804688 -22.246094 C 9.554688 -22.71875 7.191406 -22.300781 5.195312 -21.078125 C 4 -20.386719 2.417969 -19.050781 1.695312 -18.21875 C 0.917969 -17.273438 0.222656 -15.941406 0.140625 -15.191406 C 0.0546875 -14.527344 0.25 -14.109375 0.859375 -13.527344 C 1.332031 -13.082031 1.777344 -12.96875 1.554688 -13.359375 C 1.417969 -13.636719 1.527344 -14.109375 1.917969 -14.886719 C 2.972656 -16.96875 5.359375 -18.859375 8.082031 -19.746094 C 9.304688 -20.164062 11.109375 -20.246094 12.359375 -19.914062 C 13.496094 -19.636719 14.359375 -19.21875 14.496094 -18.886719 C 14.636719 -18.496094 14.609375 -17.359375 14.441406 -16.554688 C 13.859375 -13.804688 11.914062 -11.054688 8.664062 -8.441406 C 7.109375 -7.191406 5.164062 -5.914062 5 -6.082031 C 4.914062 -6.136719 5.832031 -8.859375 6.359375 -10.136719 C 6.636719 -10.777344 7.304688 -12.359375 7.859375 -13.609375 C 8.441406 -14.886719 8.941406 -16.164062 9 -16.496094 C 9.136719 -17.082031 9.136719 -17.082031 8.832031 -17.332031 C 8.664062 -17.46875 8.5 -17.554688 8.441406 -17.523438 C 8.386719 -17.496094 8.332031 -17.523438 8.332031 -17.582031 C 8.332031 -17.636719 8.277344 -17.691406 8.191406 -17.691406 C 8.136719 -17.691406 8 -17.804688 7.941406 -17.941406 C 7.777344 -18.332031 7.359375 -18.300781 6.886719 -17.859375 C 6.414062 -17.414062 5.332031 -15.441406 4.636719 -13.664062 C 3.945312 -11.941406 2.554688 -7.691406 2.304688 -6.527344 C 1.972656 -4.914062 2 -4.945312 1.277344 -5.027344 C 0.804688 -5.082031 0.640625 -5.136719 0.390625 -5.414062 C 0.0546875 -5.777344 -0.109375 -5.804688 -0.109375 -5.527344 C -0.109375 -5.222656 0.5 -4.582031 1.195312 -4.082031 C 1.582031 -3.804688 1.777344 -3.636719 1.722656 -3.527344 C 1.609375 -3.25 1.667969 -0.390625 1.777344 0.140625 C 2 1.140625 2.945312 2.5 3.472656 2.609375 C 3.667969 2.636719 3.832031 2.695312 3.859375 2.75 Z M 2.386719 -17.609375 C 2.554688 -17.71875 2.554688 -17.71875 2.445312 -17.554688 C 2.304688 -17.386719 2.195312 -17.332031 2.195312 -17.414062 C 2.195312 -17.441406 2.277344 -17.523438 2.386719 -17.609375 Z M 1.054688 -15.636719 C 1.277344 -16.109375 1.832031 -16.996094 2.054688 -17.164062 C 2.167969 -17.246094 2.109375 -17.136719 1.945312 -16.914062 C 1.777344 -16.71875 1.5 -16.246094 1.304688 -15.859375 C 0.945312 -15.191406 0.832031 -15.082031 1.054688 -15.636719 Z M 3.136719 -17.832031 C 2.222656 -16.859375 2.109375 -16.71875 1.804688 -16.246094 C 1.667969 -15.996094 1.527344 -15.773438 1.5 -15.773438 C 1.25 -15.773438 2.695312 -17.609375 3.359375 -18.164062 C 3.582031 -18.332031 3.5 -18.21875 3.136719 -17.832031 Z M 13.554688 -12.304688 C 14.21875 -13.359375 14.304688 -13.46875 13.996094 -12.832031 C 13.832031 -12.527344 13.554688 -12.136719 13.386719 -11.941406 C 13.21875 -11.71875 13.277344 -11.859375 13.554688 -12.304688 Z M 13.027344 -11.082031 C 13.609375 -11.859375 14.277344 -12.859375 14.527344 -13.359375 C 14.636719 -13.582031 14.746094 -13.746094 14.777344 -13.71875 C 14.859375 -13.636719 14.054688 -12.277344 13.527344 -11.554688 C 13.246094 -11.164062 12.914062 -10.75 12.777344 -10.636719 C 12.636719 -10.527344 12.746094 -10.71875 13.027344 -11.082031 Z M 12.25 -10.109375 C 12.386719 -10.277344 12.527344 -10.386719 12.554688 -10.386719 C 12.582031 -10.386719 12.496094 -10.277344 12.359375 -10.109375 C 12.21875 -9.96875 12.082031 -9.859375 12.054688 -9.859375 C 12.027344 -9.859375 12.136719 -9.96875 12.25 -10.109375 Z M 12.277344 -9.609375 C 12.746094 -10.136719 13.441406 -11 13.804688 -11.5 C 14.859375 -12.941406 14.886719 -12.886719 13.859375 -11.414062 C 13.554688 -10.941406 12.859375 -10.136719 12.332031 -9.609375 L 11.386719 -8.636719 Z M 8.304688 -17.359375 C 8.332031 -17.304688 8.191406 -16.941406 7.972656 -16.523438 C 6.5 -13.609375 5.082031 -10.109375 4.222656 -7.277344 C 4.054688 -6.695312 3.859375 -6.027344 3.804688 -5.832031 C 3.75 -5.636719 3.695312 -5.527344 3.695312 -5.609375 C 3.667969 -6.222656 5.332031 -11.082031 6.414062 -13.496094 C 7.25 -15.359375 8.25 -17.414062 8.304688 -17.359375 Z M 7.691406 -16.96875 C 7.859375 -17.109375 7.859375 -17.082031 7.722656 -16.886719 C 7.636719 -16.773438 7.554688 -16.664062 7.527344 -16.636719 C 7.5 -16.609375 7.5 -16.636719 7.5 -16.71875 C 7.5 -16.773438 7.582031 -16.886719 7.691406 -16.96875 Z M 3.304688 -5.722656 C 3.554688 -7 4.636719 -10.21875 5.527344 -12.441406 C 6.332031 -14.359375 7.386719 -16.582031 7.472656 -16.496094 C 7.5 -16.441406 7.472656 -16.359375 7.414062 -16.304688 C 7.304688 -16.136719 6.195312 -13.746094 5.832031 -12.886719 C 4.886719 -10.554688 4.082031 -8.222656 3.667969 -6.695312 C 3.359375 -5.472656 3.167969 -5 3.304688 -5.722656 Z M 2.582031 -2.304688 C 2.554688 -2.25 2.527344 -2.332031 2.554688 -2.5 C 2.554688 -2.667969 2.582031 -2.722656 2.582031 -2.636719 C 2.609375 -2.527344 2.609375 -2.386719 2.582031 -2.304688 Z M 2.917969 -2.332031 C 2.859375 -1.777344 2.859375 -0.945312 2.886719 -0.472656 C 2.917969 0.0273438 2.917969 0.417969 2.886719 0.417969 C 2.722656 0.417969 2.722656 -3.195312 2.886719 -3.386719 C 3 -3.5 3.027344 -3.304688 2.917969 -2.332031 Z M 3.277344 -2.445312 C 3.25 -1.886719 3.222656 -1.417969 3.195312 -1.386719 C 3.136719 -1.304688 3.195312 -2.804688 3.277344 -3.136719 C 3.304688 -3.304688 3.332031 -3 3.277344 -2.445312 Z M 3.277344 -2.445312 "/></g></g></g><g fill="#2e96d6" fill-opacity="1"><g transform="translate(50.632066, 28.812138)"><g><path d="M 12.636719 -14.21875 C 12.71875 -14.109375 12.804688 -13.996094 12.832031 -14.027344 C 12.886719 -14.027344 13.027344 -13.996094 13.164062 -13.941406 C 13.914062 -13.691406 14.664062 -15.804688 14.664062 -18.21875 C 14.664062 -19.136719 14.609375 -19.496094 14.441406 -19.96875 C 14.21875 -20.550781 13.691406 -21.136719 13.109375 -21.441406 C 12.941406 -21.523438 12.71875 -21.664062 12.664062 -21.773438 C 12.414062 -22.050781 11.75 -22.359375 11.136719 -22.414062 C 8.75 -22.691406 5.695312 -20.300781 3.359375 -16.332031 C 1.195312 -12.664062 -0.109375 -7.777344 0.25 -4.636719 C 0.390625 -3.445312 0.667969 -2.417969 1 -1.886719 C 1.472656 -1.109375 2.695312 -0.25 3.304688 -0.222656 C 3.417969 -0.222656 3.695312 -0.167969 3.886719 -0.0820312 C 4.445312 0.167969 5.082031 0.140625 5.664062 -0.140625 C 6.636719 -0.609375 8.441406 -2.667969 9.554688 -4.527344 L 9.804688 -4.945312 L 9.75 -4 C 9.636719 -2.445312 10 -0.667969 10.609375 0.390625 C 10.75 0.640625 11.109375 1.082031 11.386719 1.359375 C 11.71875 1.722656 11.96875 1.886719 12.027344 1.804688 C 12.082031 1.75 12.082031 1.445312 12 0.972656 C 11.609375 -1.445312 11.832031 -3.417969 12.914062 -7.472656 C 13.191406 -8.582031 13.246094 -9.027344 13.082031 -9.027344 C 12.46875 -9.027344 14.332031 -9.859375 15.636719 -10.191406 C 16.164062 -10.304688 16.554688 -10.441406 16.554688 -10.46875 C 16.554688 -10.527344 16.46875 -10.664062 16.386719 -10.804688 L 16.191406 -11.027344 L 14.21875 -10.941406 C 11.886719 -10.804688 10.832031 -10.554688 9.109375 -9.71875 C 7.914062 -9.136719 6.941406 -8.359375 6.941406 -8.027344 C 6.941406 -7.941406 7.027344 -7.75 7.164062 -7.636719 C 7.277344 -7.527344 7.414062 -7.304688 7.472656 -7.164062 C 7.527344 -7.027344 7.636719 -6.886719 7.722656 -6.886719 C 7.804688 -6.886719 8.359375 -7.136719 8.972656 -7.441406 C 9.554688 -7.722656 10.054688 -7.941406 10.082031 -7.914062 C 10.136719 -7.859375 8.164062 -4.859375 7.386719 -3.859375 C 6.527344 -2.75 5.664062 -1.972656 4.859375 -1.582031 C 4.082031 -1.222656 4.027344 -1.222656 3.886719 -1.582031 C 3.582031 -2.359375 3.5 -2.917969 3.5 -4.414062 C 3.527344 -5.695312 3.582031 -6.277344 3.804688 -7.414062 C 4.664062 -11.691406 6.75 -15.914062 9.222656 -18.386719 C 10.054688 -19.246094 10.414062 -19.523438 11.054688 -19.832031 C 11.5 -20.050781 12 -20.246094 12.191406 -20.300781 C 12.496094 -20.359375 12.527344 -20.332031 12.664062 -19.941406 C 12.859375 -19.414062 12.859375 -17.246094 12.664062 -15.664062 C 12.554688 -14.746094 12.554688 -14.414062 12.636719 -14.21875 Z M 13.496094 -16.359375 C 13.582031 -16.664062 13.582031 -16.664062 13.582031 -16.414062 C 13.582031 -16.273438 13.554688 -16.054688 13.496094 -15.886719 C 13.441406 -15.691406 13.414062 -15.664062 13.414062 -15.832031 C 13.414062 -15.96875 13.441406 -16.191406 13.496094 -16.359375 Z M 13.304688 -15.332031 C 13.304688 -15.441406 13.332031 -15.46875 13.359375 -15.386719 C 13.386719 -15.304688 13.386719 -15.21875 13.359375 -15.191406 C 13.304688 -15.136719 13.304688 -15.21875 13.304688 -15.332031 Z M 1.386719 -4.222656 C 1.386719 -3.917969 1.359375 -4.164062 1.359375 -4.777344 C 1.359375 -5.386719 1.386719 -5.636719 1.386719 -5.332031 C 1.417969 -5.027344 1.417969 -4.527344 1.386719 -4.222656 Z M 11.75 -8.527344 C 11.804688 -8.609375 11.859375 -8.691406 11.886719 -8.636719 C 11.914062 -8.609375 11.886719 -8.527344 11.832031 -8.472656 C 11.71875 -8.359375 11.691406 -8.359375 11.75 -8.527344 Z M 11.691406 -8.164062 C 11.75 -8.25 11.804688 -8.277344 11.804688 -8.222656 C 11.804688 -8.164062 11.75 -8.054688 11.691406 -7.941406 C 11.636719 -7.859375 11.609375 -7.832031 11.609375 -7.914062 C 11.609375 -7.972656 11.636719 -8.082031 11.691406 -8.164062 Z M 2.75 -11.21875 C 3 -11.96875 3.527344 -13.277344 3.554688 -13.136719 C 3.554688 -13.109375 3.304688 -12.414062 3.027344 -11.609375 C 2.472656 -10.027344 2.304688 -9.804688 2.75 -11.21875 Z M 2.386719 -9.914062 C 2.386719 -10.054688 2.417969 -10.082031 2.445312 -10 C 2.5 -9.914062 2.472656 -9.832031 2.445312 -9.777344 C 2.417969 -9.75 2.386719 -9.804688 2.386719 -9.914062 Z M 2.277344 -9.5 C 2.332031 -9.636719 2.359375 -9.636719 2.386719 -9.554688 C 2.386719 -9.441406 2.332031 -9.304688 2.277344 -9.222656 C 2.167969 -9.027344 2.167969 -9.191406 2.277344 -9.5 Z M 1.917969 -2.917969 C 1.886719 -2.886719 1.832031 -3.136719 1.75 -3.472656 C 1.609375 -4.164062 1.609375 -6.082031 1.75 -6.804688 C 1.804688 -7.136719 1.832031 -6.914062 1.777344 -6.109375 C 1.75 -5.472656 1.777344 -4.5 1.832031 -3.945312 C 1.917969 -3.386719 1.945312 -2.917969 1.917969 -2.917969 Z M 1.917969 -7.386719 C 1.886719 -7.332031 1.859375 -7.414062 1.886719 -7.582031 C 1.886719 -7.75 1.886719 -7.832031 1.917969 -7.722656 C 1.945312 -7.609375 1.945312 -7.472656 1.917969 -7.386719 Z M 2.027344 -8.136719 C 2 -8.082031 1.972656 -8.136719 1.972656 -8.277344 C 1.972656 -8.414062 2 -8.472656 2.027344 -8.414062 C 2.054688 -8.332031 2.054688 -8.222656 2.027344 -8.136719 Z M 2.082031 -8.75 C 2.082031 -8.886719 2.109375 -8.914062 2.136719 -8.832031 C 2.167969 -8.75 2.167969 -8.664062 2.136719 -8.609375 C 2.082031 -8.582031 2.082031 -8.636719 2.082031 -8.75 Z M 2.25 -3.695312 C 2.222656 -3.609375 2.195312 -3.695312 2.195312 -3.832031 C 2.195312 -3.972656 2.222656 -4.027344 2.25 -3.972656 C 2.277344 -3.886719 2.277344 -3.777344 2.25 -3.695312 Z M 3.082031 -3.222656 C 3.054688 -3.195312 3.027344 -3.25 3.027344 -3.359375 C 3.027344 -3.472656 3.054688 -3.5 3.082031 -3.417969 C 3.109375 -3.359375 3.109375 -3.25 3.082031 -3.222656 Z M 4.25 -13.386719 C 3.277344 -11.191406 2.554688 -8.691406 2.386719 -7 C 2.332031 -6.386719 2.222656 -5.5 2.167969 -5.054688 C 2.082031 -4.25 2.082031 -4.304688 2.109375 -5.527344 C 2.195312 -7.414062 2.636719 -9.582031 3.417969 -11.664062 C 3.777344 -12.691406 4.609375 -14.554688 4.664062 -14.496094 C 4.695312 -14.46875 4.5 -13.96875 4.25 -13.386719 Z M 4.25 -13.386719 "/></g></g></g><g fill="#2e96d6" fill-opacity="1"><g transform="translate(67.431127, 28.812138)"><g><path d="M 0.277344 -7.164062 C 0.472656 -7.109375 0.472656 -7.027344 0.445312 -5.445312 C 0.417969 -3.636719 0.527344 -2.667969 0.859375 -1.859375 C 1.195312 -1.109375 1.667969 -0.5 2.222656 -0.0546875 C 2.5 0.167969 2.832031 0.417969 2.972656 0.527344 C 3.082031 0.640625 3.359375 0.804688 3.582031 0.890625 C 3.972656 1.027344 4.027344 1.027344 4.527344 0.859375 C 4.832031 0.777344 6.777344 -0.75 7.027344 -1.082031 C 7.191406 -1.304688 7.191406 -1.304688 6.972656 -1.5 C 6.636719 -1.75 6.609375 -1.75 5.609375 -1.222656 C 4.582031 -0.667969 3.886719 -0.445312 3.417969 -0.554688 C 3.109375 -0.609375 3.082031 -0.695312 2.886719 -1.472656 C 2.527344 -2.804688 2.695312 -4.136719 3.472656 -6.527344 L 3.859375 -7.691406 L 4.777344 -8.191406 C 5.886719 -8.804688 7.332031 -9.359375 9.554688 -10.054688 C 10.414062 -10.304688 11.136719 -10.554688 11.164062 -10.582031 C 11.191406 -10.609375 11.082031 -10.832031 10.914062 -11.027344 L 10.582031 -11.414062 L 9.664062 -11.25 C 9.164062 -11.191406 7.914062 -10.941406 6.914062 -10.691406 C 5.914062 -10.46875 5.082031 -10.304688 5.054688 -10.332031 C 5 -10.414062 5.972656 -12.609375 7 -14.71875 C 7.527344 -15.804688 8.109375 -17.082031 8.332031 -17.582031 L 8.722656 -18.46875 L 9.664062 -18.773438 C 10.941406 -19.21875 12.859375 -19.664062 14.109375 -19.832031 C 15.359375 -19.996094 15.46875 -20.023438 15.609375 -20.332031 C 15.691406 -20.523438 15.664062 -20.636719 15.496094 -20.914062 C 15.386719 -21.109375 15.273438 -21.300781 15.273438 -21.359375 C 15.273438 -21.578125 14.691406 -22.109375 14.246094 -22.21875 C 13.996094 -22.300781 13.027344 -22.386719 12.054688 -22.414062 C 10.5 -22.46875 10.164062 -22.441406 8.832031 -22.164062 C 6.664062 -21.746094 5.277344 -21.164062 4.695312 -20.441406 C 4.414062 -20.082031 4.386719 -20.082031 4.527344 -19.550781 C 4.636719 -19.109375 4.722656 -18.996094 4.914062 -18.996094 C 5.054688 -18.996094 5.136719 -18.941406 5.082031 -18.886719 C 5.054688 -18.800781 5.082031 -18.746094 5.164062 -18.746094 C 5.445312 -18.746094 5.195312 -18.050781 4.5 -16.773438 C 3.277344 -14.609375 2.109375 -11.96875 1.445312 -10 C 1.222656 -9.304688 1.109375 -9.109375 0.777344 -8.886719 C 0.25 -8.554688 -0.195312 -8.027344 -0.195312 -7.804688 C -0.167969 -7.527344 0.0273438 -7.222656 0.277344 -7.164062 Z M 6.664062 -14.941406 C 6.609375 -14.804688 6.554688 -14.691406 6.527344 -14.691406 C 6.5 -14.691406 6.527344 -14.804688 6.582031 -14.941406 C 6.636719 -15.082031 6.722656 -15.164062 6.75 -15.164062 C 6.777344 -15.164062 6.75 -15.082031 6.664062 -14.941406 Z M 7.25 -17.886719 C 7.277344 -17.859375 7.109375 -17.496094 6.886719 -17.109375 C 6.277344 -16.054688 4.777344 -12.941406 4.109375 -11.386719 C 3.804688 -10.664062 3.527344 -10.054688 3.472656 -10.054688 C 3.386719 -10.054688 3.582031 -10.5 4.277344 -12.136719 C 5.222656 -14.304688 7.136719 -17.996094 7.25 -17.886719 Z M 6.722656 -17.804688 C 6.777344 -17.804688 6.722656 -17.664062 6.609375 -17.46875 C 5.554688 -15.609375 3.472656 -11.21875 3.195312 -10.304688 C 3.136719 -10.109375 3.027344 -9.914062 2.972656 -9.914062 C 2.832031 -9.914062 2.859375 -9.941406 3.527344 -11.5 C 4.636719 -14.136719 6.5 -17.804688 6.722656 -17.804688 Z M 5.945312 -17.109375 C 6.109375 -17.246094 6.109375 -17.246094 5.972656 -17.054688 C 5.832031 -16.859375 5.75 -16.804688 5.75 -16.886719 C 5.75 -16.914062 5.832031 -17.023438 5.945312 -17.109375 Z M 5.554688 -16.441406 C 5.636719 -16.46875 5.609375 -16.386719 5.5 -16.21875 C 5.414062 -16.023438 5.304688 -15.886719 5.277344 -15.886719 C 5.195312 -15.886719 5.445312 -16.359375 5.554688 -16.441406 Z M 5.164062 -15.71875 C 5.222656 -15.773438 5.164062 -15.582031 5.027344 -15.304688 C 4.859375 -14.996094 4.527344 -14.246094 4.222656 -13.636719 C 3.667969 -12.441406 3.609375 -12.332031 3.609375 -12.46875 C 3.609375 -12.609375 5.054688 -15.582031 5.164062 -15.71875 Z M 2.777344 -10.554688 C 2.917969 -11 3.5 -12.304688 3.554688 -12.304688 C 3.582031 -12.304688 3.417969 -11.886719 3.222656 -11.386719 C 2.859375 -10.46875 2.582031 -9.941406 2.777344 -10.554688 Z M 2.527344 -9.96875 C 2.582031 -10.082031 2.636719 -10.136719 2.667969 -10.109375 C 2.695312 -10.082031 2.667969 -9.96875 2.582031 -9.886719 C 2.5 -9.777344 2.472656 -9.804688 2.527344 -9.96875 Z M 2.277344 -6.832031 C 2.332031 -6.914062 2.359375 -6.941406 2.359375 -6.886719 C 2.359375 -6.664062 2.195312 -6.277344 2.167969 -6.472656 C 2.167969 -6.554688 2.222656 -6.722656 2.277344 -6.832031 Z M 1.859375 -6.695312 C 1.917969 -6.695312 1.886719 -6.445312 1.804688 -6.136719 C 1.75 -5.832031 1.667969 -5.472656 1.636719 -5.332031 C 1.582031 -5.136719 1.582031 -5.136719 1.554688 -5.304688 C 1.554688 -5.636719 1.777344 -6.695312 1.859375 -6.695312 Z M 1.472656 -6.414062 C 1.472656 -6.554688 1.5 -6.582031 1.527344 -6.5 C 1.554688 -6.414062 1.554688 -6.304688 1.527344 -6.25 C 1.472656 -6.222656 1.472656 -6.277344 1.472656 -6.414062 Z M 1.472656 -6.414062 "/></g></g></g><g fill="#2e96d6" fill-opacity="1"><g transform="translate(79.287712, 28.812138)"><g><path d="M 17.109375 -21.550781 C 16.941406 -21.691406 16.773438 -21.773438 16.71875 -21.746094 C 16.664062 -21.71875 16.636719 -21.746094 16.636719 -21.800781 C 16.636719 -21.859375 16.554688 -21.886719 16.441406 -21.828125 C 16.332031 -21.800781 16.304688 -21.800781 16.359375 -21.886719 C 16.386719 -21.96875 16.386719 -22.023438 16.332031 -22.023438 C 16.273438 -22.023438 16.191406 -22.109375 16.164062 -22.246094 C 16.109375 -22.496094 15.804688 -22.496094 15.496094 -22.273438 C 14.941406 -21.886719 13.109375 -18.332031 12.136719 -15.832031 C 11.386719 -13.777344 10.386719 -10.691406 9.859375 -8.582031 L 9.359375 -6.609375 L 9.082031 -7.164062 C 8 -9.304688 7.332031 -12.277344 7 -16.304688 C 6.941406 -17.082031 6.832031 -17.96875 6.777344 -18.273438 C 6.664062 -18.71875 6.695312 -18.914062 6.886719 -19.582031 C 7 -20.023438 7.109375 -20.582031 7.109375 -20.859375 C 7.109375 -21.273438 7.054688 -21.359375 6.804688 -21.523438 C 6.636719 -21.609375 6.472656 -21.664062 6.414062 -21.636719 C 6.386719 -21.578125 6.359375 -21.609375 6.359375 -21.691406 C 6.359375 -21.773438 6.304688 -21.800781 6.25 -21.746094 C 6.164062 -21.71875 6.054688 -21.773438 5.972656 -21.914062 C 5.75 -22.21875 5.359375 -22.191406 5.082031 -21.828125 C 4.695312 -21.328125 3.972656 -19.71875 3.25 -17.746094 C 0.972656 -11.414062 0.0820312 -7.164062 0.0546875 -2.917969 C 0.0546875 -0.722656 0.140625 -0.222656 0.75 0.972656 C 1 1.445312 1.140625 1.609375 1.417969 1.667969 C 1.609375 1.722656 1.832031 1.777344 1.917969 1.777344 C 2.167969 1.804688 2.277344 1.472656 2.082031 1.332031 C 1.832031 1.140625 1.832031 0.917969 1.972656 -0.695312 C 2.195312 -3.195312 3.5 -9.054688 4.636719 -12.691406 L 4.914062 -13.582031 L 5.304688 -12 C 5.972656 -9.332031 6.859375 -7.191406 7.972656 -5.664062 C 8.277344 -5.25 8.636719 -4.804688 8.777344 -4.722656 C 9.054688 -4.554688 9.054688 -4.5 9.054688 -3.386719 C 9.082031 -2.5 9.109375 -2.167969 9.25 -1.972656 C 9.441406 -1.667969 10.164062 -1.332031 10.304688 -1.472656 C 10.386719 -1.582031 10.71875 -2.832031 10.859375 -3.609375 C 10.886719 -3.859375 11.21875 -5.054688 11.554688 -6.25 C 12.441406 -9.277344 13.832031 -12.914062 15.441406 -16.359375 C 16.496094 -18.664062 17.082031 -20.050781 17.273438 -20.746094 C 17.414062 -21.300781 17.414062 -21.300781 17.109375 -21.550781 Z M 1.027344 -2.886719 C 1.054688 -2.804688 1.054688 -2.695312 1.027344 -2.609375 C 1 -2.554688 0.972656 -2.609375 0.972656 -2.75 C 0.972656 -2.886719 1 -2.972656 1.027344 -2.886719 Z M 1.027344 -0.140625 C 1 -0.0273438 0.972656 -0.140625 0.972656 -0.359375 C 1 -0.609375 1 -0.695312 1.027344 -0.554688 C 1.054688 -0.417969 1.054688 -0.25 1.027344 -0.140625 Z M 3.917969 -15.832031 C 4.554688 -17.746094 4.554688 -17.71875 4.609375 -17.664062 C 4.609375 -17.636719 4.359375 -16.832031 4.027344 -15.832031 C 3.695312 -14.832031 3.417969 -14.082031 3.386719 -14.136719 C 3.386719 -14.191406 3.636719 -14.96875 3.917969 -15.832031 Z M 2.832031 -12.277344 C 2.886719 -12.664062 3.277344 -13.777344 3.277344 -13.609375 C 3.277344 -13.554688 3.167969 -13.136719 3.027344 -12.71875 C 2.886719 -12.277344 2.777344 -12.082031 2.832031 -12.277344 Z M 2.636719 -11.691406 C 2.722656 -11.832031 2.75 -11.859375 2.75 -11.75 C 2.75 -11.664062 2.695312 -11.5 2.636719 -11.386719 C 2.582031 -11.25 2.554688 -11.21875 2.554688 -11.332031 C 2.554688 -11.414062 2.609375 -11.582031 2.636719 -11.691406 Z M 2.445312 -10.96875 C 2.445312 -11.082031 2.472656 -11.109375 2.5 -11.027344 C 2.554688 -10.941406 2.527344 -10.859375 2.5 -10.832031 C 2.472656 -10.804688 2.445312 -10.859375 2.445312 -10.96875 Z M 2.332031 -10.554688 C 2.359375 -10.664062 2.359375 -10.691406 2.417969 -10.609375 C 2.445312 -10.527344 2.445312 -10.441406 2.386719 -10.414062 C 2.359375 -10.359375 2.332031 -10.441406 2.332031 -10.554688 Z M 2.25 -10.109375 C 2.25 -10.25 2.277344 -10.277344 2.304688 -10.191406 C 2.332031 -10.109375 2.332031 -10.027344 2.304688 -9.96875 C 2.25 -9.941406 2.222656 -10 2.25 -10.109375 Z M 2.136719 -9.691406 C 2.136719 -9.832031 2.167969 -9.859375 2.195312 -9.75 C 2.222656 -9.691406 2.222656 -9.582031 2.195312 -9.554688 C 2.136719 -9.527344 2.136719 -9.582031 2.136719 -9.691406 Z M 2.082031 -9.332031 C 2.109375 -9.277344 2.109375 -9.164062 2.082031 -9.082031 C 2.054688 -9 2.027344 -9.054688 2.027344 -9.222656 C 2.027344 -9.359375 2.054688 -9.414062 2.082031 -9.332031 Z M 1.917969 -8.75 C 1.917969 -8.859375 1.945312 -8.886719 1.972656 -8.804688 C 2.027344 -8.722656 2 -8.636719 1.972656 -8.609375 C 1.945312 -8.582031 1.917969 -8.636719 1.917969 -8.75 Z M 1.886719 -8.386719 C 1.917969 -8.332031 1.917969 -8.191406 1.886719 -8.136719 C 1.832031 -8.054688 1.832031 -8.109375 1.832031 -8.25 C 1.832031 -8.414062 1.832031 -8.472656 1.886719 -8.386719 Z M 1.25 -0.667969 C 1.222656 -0.332031 1.222656 -0.609375 1.222656 -1.277344 C 1.222656 -1.945312 1.222656 -2.222656 1.25 -1.886719 C 1.277344 -1.554688 1.277344 -1 1.25 -0.667969 Z M 1.417969 -3.222656 C 1.332031 -2.667969 1.277344 -2.636719 1.277344 -3.109375 C 1.277344 -3.304688 1.332031 -3.5 1.386719 -3.554688 C 1.445312 -3.582031 1.445312 -3.445312 1.417969 -3.222656 Z M 1.445312 -3.777344 C 1.417969 -3.722656 1.386719 -3.777344 1.386719 -3.917969 C 1.386719 -4.054688 1.417969 -4.136719 1.445312 -4.054688 C 1.472656 -3.972656 1.472656 -3.859375 1.445312 -3.777344 Z M 1.445312 -5.859375 C 1.417969 -5.832031 1.386719 -5.886719 1.386719 -6 C 1.386719 -6.109375 1.417969 -6.136719 1.445312 -6.054688 C 1.472656 -5.972656 1.472656 -5.886719 1.445312 -5.859375 Z M 1.5 -6.636719 C 1.5 -6.75 1.527344 -6.777344 1.554688 -6.695312 C 1.582031 -6.609375 1.582031 -6.527344 1.554688 -6.5 C 1.527344 -6.445312 1.5 -6.527344 1.5 -6.636719 Z M 1.554688 -4.359375 C 1.527344 -4.277344 1.5 -4.359375 1.5 -4.554688 C 1.5 -4.75 1.527344 -4.832031 1.554688 -4.75 C 1.582031 -4.636719 1.582031 -4.472656 1.554688 -4.359375 Z M 1.667969 -5.054688 C 1.636719 -5 1.609375 -5.054688 1.609375 -5.195312 C 1.609375 -5.332031 1.636719 -5.386719 1.667969 -5.332031 C 1.695312 -5.25 1.695312 -5.136719 1.667969 -5.054688 Z M 1.667969 -7.082031 C 1.636719 -7 1.609375 -7.054688 1.609375 -7.191406 C 1.609375 -7.359375 1.636719 -7.414062 1.667969 -7.332031 C 1.695312 -7.25 1.695312 -7.136719 1.667969 -7.082031 Z M 1.777344 -5.582031 C 1.75 -5.527344 1.722656 -5.609375 1.722656 -5.777344 C 1.722656 -5.945312 1.75 -6 1.777344 -5.914062 C 1.804688 -5.804688 1.804688 -5.664062 1.777344 -5.582031 Z M 4.195312 -15.082031 C 3.777344 -13.859375 3.445312 -12.746094 2.859375 -10.582031 C 2.75 -10.21875 2.527344 -9.222656 2.332031 -8.359375 C 1.886719 -6.277344 1.832031 -6.054688 1.804688 -6.277344 C 1.777344 -6.972656 3 -11.832031 4.027344 -14.941406 C 4.582031 -16.609375 4.554688 -16.554688 4.609375 -16.496094 C 4.636719 -16.46875 4.445312 -15.832031 4.195312 -15.082031 Z M 5.945312 -21.273438 C 6 -21.359375 6.027344 -21.386719 6.027344 -21.328125 C 6.027344 -21.273438 6 -21.164062 5.945312 -21.078125 C 5.886719 -20.96875 5.832031 -20.96875 5.832031 -21.023438 C 5.832031 -21.078125 5.886719 -21.191406 5.945312 -21.273438 Z M 5.5 -19.886719 C 5.277344 -19.359375 5.195312 -19.164062 5.195312 -19.300781 C 5.195312 -19.441406 5.636719 -20.550781 5.664062 -20.523438 C 5.695312 -20.496094 5.609375 -20.21875 5.5 -19.886719 Z M 5.804688 -15.441406 C 5.777344 -15.304688 5.75 -15.414062 5.75 -15.664062 C 5.75 -15.941406 5.777344 -16.054688 5.804688 -15.914062 C 5.832031 -15.773438 5.832031 -15.554688 5.804688 -15.441406 Z M 5.886719 -14.441406 C 5.859375 -14.386719 5.832031 -14.441406 5.832031 -14.582031 C 5.832031 -14.691406 5.859375 -14.71875 5.886719 -14.636719 C 5.945312 -14.554688 5.914062 -14.46875 5.886719 -14.441406 Z M 5.945312 -20.023438 C 5.75 -19.496094 5.554688 -19.050781 5.527344 -19.050781 C 5.472656 -19.050781 5.5 -19.191406 5.886719 -20.246094 C 6.054688 -20.691406 6.195312 -21.050781 6.222656 -21.023438 C 6.25 -20.996094 6.109375 -20.550781 5.945312 -20.023438 Z M 10.777344 -8.054688 C 10.804688 -8.25 10.859375 -8.527344 10.914062 -8.636719 C 11 -8.777344 11 -8.722656 10.941406 -8.472656 C 10.914062 -8.277344 10.832031 -8 10.777344 -7.886719 C 10.71875 -7.75 10.71875 -7.804688 10.777344 -8.054688 Z M 9.886719 -3.554688 C 9.859375 -3.136719 9.804688 -2.777344 9.777344 -2.777344 C 9.71875 -2.695312 9.75 -3.445312 9.859375 -3.859375 C 9.914062 -4.195312 9.914062 -4.109375 9.886719 -3.554688 Z M 10.136719 -3.695312 C 10.109375 -3.609375 10.082031 -3.667969 10.082031 -3.804688 C 10.082031 -3.972656 10.109375 -4.027344 10.136719 -3.945312 C 10.164062 -3.859375 10.164062 -3.75 10.136719 -3.695312 Z M 10.136719 -5.445312 C 10.082031 -5.386719 10.054688 -5.414062 10.109375 -5.554688 C 10.136719 -5.664062 10.25 -6.195312 10.386719 -6.695312 C 10.527344 -7.222656 10.636719 -7.609375 10.664062 -7.582031 C 10.691406 -7.582031 10.582031 -7.109375 10.46875 -6.554688 C 10.332031 -6 10.191406 -5.527344 10.136719 -5.445312 Z M 10.441406 -5.332031 C 10.414062 -5.277344 10.386719 -5.359375 10.386719 -5.472656 C 10.386719 -5.582031 10.414062 -5.609375 10.441406 -5.527344 C 10.46875 -5.445312 10.46875 -5.359375 10.441406 -5.332031 Z M 10.777344 -6.832031 C 10.804688 -6.777344 10.71875 -6.5 10.664062 -6.195312 C 10.582031 -5.914062 10.5 -5.75 10.5 -5.886719 C 10.5 -6.109375 10.777344 -7 10.777344 -6.832031 Z M 10.941406 -7.359375 C 10.859375 -6.972656 10.804688 -6.886719 10.804688 -7.164062 C 10.804688 -7.277344 10.859375 -7.441406 10.914062 -7.527344 C 11 -7.636719 11 -7.582031 10.941406 -7.359375 Z M 13.277344 -15.441406 C 13.914062 -16.941406 15.582031 -20.441406 15.636719 -20.386719 C 15.691406 -20.359375 15.359375 -19.636719 14.332031 -17.46875 C 13.46875 -15.664062 11.636719 -10.886719 11.21875 -9.332031 C 11.109375 -8.941406 11.027344 -8.75 11.027344 -9 C 11.027344 -9.222656 12.777344 -14.21875 13.277344 -15.441406 Z M 11.082031 -7.75 C 11.054688 -7.722656 11.027344 -7.777344 11.027344 -7.886719 C 11.027344 -8.027344 11.054688 -8.054688 11.082031 -7.972656 C 11.109375 -7.886719 11.109375 -7.804688 11.082031 -7.75 Z M 15.609375 -19.300781 C 13.582031 -14.996094 13.054688 -13.71875 11.75 -9.804688 C 11.441406 -8.914062 11.191406 -8.191406 11.164062 -8.164062 C 11 -8 11.386719 -9.25 12.277344 -11.691406 C 13.136719 -14.136719 13.832031 -15.804688 14.96875 -18.273438 C 15.246094 -18.859375 15.582031 -19.582031 15.71875 -19.859375 C 15.859375 -20.164062 16.023438 -20.441406 16.082031 -20.46875 C 16.136719 -20.523438 15.941406 -19.996094 15.609375 -19.300781 Z M 15.609375 -19.300781 "/></g></g></g><g fill="#2e96d6" fill-opacity="1"><g transform="translate(93.7266, 28.812138)"><g><path d="M -0.667969 0.140625 C -0.527344 0.25 -0.332031 0.332031 -0.222656 0.332031 C -0.109375 0.332031 0 0.417969 0 0.5 C 0 0.582031 0.0546875 0.667969 0.140625 0.695312 C 0.359375 0.804688 0.5 0.777344 1.859375 0.25 C 2.636719 -0.0273438 3.859375 -0.417969 4.609375 -0.609375 C 5.359375 -0.804688 6.027344 -0.972656 6.082031 -1 C 6.109375 -1.027344 6 -1.222656 5.777344 -1.417969 C 5.332031 -1.804688 5.304688 -1.804688 3.636719 -1.609375 C 3.222656 -1.554688 3.195312 -1.582031 3.136719 -1.832031 C 3.082031 -1.972656 3.082031 -2.25 3.109375 -2.445312 C 3.136719 -2.636719 3.222656 -3.359375 3.277344 -4.054688 C 3.527344 -7.277344 4.554688 -10.96875 6.664062 -16.246094 C 7.609375 -18.609375 8.136719 -20.191406 8.136719 -20.664062 C 8.136719 -20.886719 8.277344 -20.96875 9.136719 -21.246094 C 9.691406 -21.414062 10.527344 -21.609375 11 -21.636719 C 11.46875 -21.664062 11.859375 -21.71875 11.859375 -21.746094 C 11.859375 -21.96875 11.554688 -22.21875 11.21875 -22.300781 C 10.96875 -22.386719 9.859375 -22.441406 8.691406 -22.441406 C 6.886719 -22.441406 6.5 -22.414062 5.804688 -22.21875 C 5.027344 -22.023438 4.386719 -21.746094 4 -21.441406 C 3.722656 -21.246094 3.832031 -20.609375 4.136719 -20.609375 C 4.25 -20.609375 4.304688 -20.582031 4.277344 -20.496094 C 4.25 -20.441406 4.277344 -20.414062 4.332031 -20.414062 C 4.414062 -20.414062 4.414062 -20.332031 4.332031 -20.21875 C 4.136719 -19.832031 4.582031 -19.636719 5.109375 -19.886719 C 5.5 -20.082031 5.554688 -19.96875 5.277344 -19.441406 C 4.472656 -17.859375 2.886719 -13.71875 2.386719 -11.804688 C 1.695312 -9.332031 1.445312 -7.75 1.386719 -5.75 C 1.359375 -3.917969 1.359375 -3.777344 1.636719 -2.804688 C 1.777344 -2.222656 1.945312 -1.722656 1.972656 -1.636719 C 2 -1.527344 1.859375 -1.472656 1.386719 -1.417969 C 0.609375 -1.332031 -0.472656 -0.777344 -0.722656 -0.359375 C -0.890625 -0.109375 -0.890625 -0.0820312 -0.667969 0.140625 Z M 3.804688 -11.25 C 3.75 -11.109375 3.722656 -11.082031 3.722656 -11.191406 C 3.722656 -11.277344 3.75 -11.441406 3.804688 -11.554688 C 3.859375 -11.691406 3.886719 -11.71875 3.886719 -11.609375 C 3.886719 -11.527344 3.859375 -11.359375 3.804688 -11.25 Z M 4.109375 -12.25 C 4 -12.054688 4 -12.21875 4.109375 -12.527344 C 4.195312 -12.664062 4.222656 -12.664062 4.222656 -12.582031 C 4.222656 -12.46875 4.195312 -12.332031 4.109375 -12.25 Z M 4.554688 -13.527344 C 4.5 -13.441406 4.445312 -13.414062 4.445312 -13.46875 C 4.445312 -13.527344 4.5 -13.636719 4.554688 -13.746094 C 4.609375 -13.832031 4.636719 -13.859375 4.636719 -13.777344 C 4.636719 -13.71875 4.609375 -13.609375 4.554688 -13.527344 Z M 5.832031 -16.886719 C 5.722656 -16.773438 5.722656 -16.804688 5.777344 -16.941406 C 5.804688 -17.054688 5.859375 -17.109375 5.914062 -17.082031 C 5.945312 -17.054688 5.914062 -16.941406 5.832031 -16.886719 Z M 6.554688 -20.300781 C 6.609375 -20.386719 6.664062 -20.414062 6.664062 -20.359375 C 6.664062 -20.300781 6.609375 -20.164062 6.554688 -20.082031 C 6.5 -19.996094 6.445312 -19.96875 6.445312 -20.023438 C 6.445312 -20.082031 6.5 -20.21875 6.554688 -20.300781 Z M 5.777344 -18.496094 C 5.859375 -18.636719 5.914062 -18.71875 5.914062 -18.664062 C 5.914062 -18.609375 5.859375 -18.441406 5.777344 -18.273438 C 5.695312 -18.136719 5.609375 -18.082031 5.609375 -18.136719 C 5.609375 -18.191406 5.695312 -18.359375 5.777344 -18.496094 Z M 5.386719 -17.664062 C 5.445312 -17.746094 5.5 -17.773438 5.5 -17.691406 C 5.5 -17.636719 5.445312 -17.523438 5.386719 -17.441406 C 5.332031 -17.359375 5.304688 -17.332031 5.304688 -17.386719 C 5.304688 -17.441406 5.332031 -17.554688 5.386719 -17.664062 Z M 5.136719 -17.023438 C 5.222656 -17.164062 5.277344 -17.246094 5.277344 -17.164062 C 5.277344 -17.109375 5.222656 -16.941406 5.136719 -16.804688 C 5.054688 -16.664062 4.972656 -16.582031 4.972656 -16.636719 C 4.972656 -16.691406 5.054688 -16.859375 5.136719 -17.023438 Z M 4.859375 -16.386719 C 4.914062 -16.46875 4.972656 -16.496094 4.972656 -16.441406 C 4.972656 -16.386719 4.914062 -16.246094 4.859375 -16.164062 C 4.804688 -16.082031 4.75 -16.054688 4.75 -16.109375 C 4.75 -16.164062 4.804688 -16.304688 4.859375 -16.386719 Z M 4.664062 -15.859375 C 4.722656 -15.941406 4.75 -15.96875 4.75 -15.914062 C 4.75 -15.859375 4.722656 -15.71875 4.664062 -15.636719 C 4.582031 -15.554688 4.554688 -15.523438 4.554688 -15.582031 C 4.554688 -15.636719 4.582031 -15.773438 4.664062 -15.859375 Z M 4.332031 -14.996094 C 4.386719 -15.082031 4.445312 -15.109375 4.445312 -15.054688 C 4.445312 -14.996094 4.386719 -14.886719 4.332031 -14.804688 C 4.277344 -14.71875 4.222656 -14.691406 4.222656 -14.746094 C 4.222656 -14.804688 4.277344 -14.914062 4.332031 -14.996094 Z M 3.75 -13.414062 C 3.804688 -13.554688 3.886719 -13.746094 3.917969 -13.832031 C 4 -13.941406 4 -13.914062 3.945312 -13.746094 C 3.917969 -13.582031 3.832031 -13.386719 3.777344 -13.304688 C 3.722656 -13.191406 3.722656 -13.21875 3.75 -13.414062 Z M 3.554688 -12.777344 C 3.609375 -12.996094 3.695312 -13.082031 3.695312 -12.996094 C 3.695312 -12.914062 3.636719 -12.691406 3.554688 -12.527344 C 3.359375 -12.109375 3.359375 -12.304688 3.554688 -12.777344 Z M 3.082031 -11.25 C 3.082031 -11.386719 3.109375 -11.414062 3.136719 -11.332031 C 3.167969 -11.25 3.167969 -11.164062 3.136719 -11.109375 C 3.082031 -11.082031 3.054688 -11.136719 3.082031 -11.25 Z M 2.554688 -9.136719 C 2.554688 -9.25 2.582031 -9.277344 2.609375 -9.191406 C 2.636719 -9.136719 2.636719 -9.027344 2.609375 -9 C 2.554688 -8.972656 2.527344 -9.027344 2.554688 -9.136719 Z M 3.277344 -11.027344 C 3.472656 -11.75 4.027344 -13.441406 4.582031 -14.941406 C 4.886719 -15.804688 6.75 -20.164062 6.886719 -20.414062 C 7.136719 -20.773438 6.859375 -20.023438 5.832031 -17.636719 C 4.195312 -13.777344 3.277344 -10.941406 2.695312 -8.082031 C 2.554688 -7.304688 2.417969 -6.582031 2.386719 -6.445312 C 2.359375 -6.222656 2.359375 -6.222656 2.332031 -6.5 C 2.332031 -6.886719 2.945312 -9.859375 3.277344 -11.027344 Z M 2.304688 -5.886719 C 2.304688 -5.722656 2.304688 -5.445312 2.304688 -5.304688 C 2.277344 -5.136719 2.25 -5.277344 2.25 -5.582031 C 2.25 -5.914062 2.277344 -6.027344 2.304688 -5.886719 Z M 2.304688 -5.886719 "/></g></g></g><g fill="#2e96d6" fill-opacity="1"><g transform="translate(100.363028, 28.812138)"><g><path d="M 0.277344 -7.164062 C 0.472656 -7.109375 0.472656 -7.027344 0.445312 -5.445312 C 0.417969 -3.636719 0.527344 -2.667969 0.859375 -1.859375 C 1.195312 -1.109375 1.667969 -0.5 2.222656 -0.0546875 C 2.5 0.167969 2.832031 0.417969 2.972656 0.527344 C 3.082031 0.640625 3.359375 0.804688 3.582031 0.890625 C 3.972656 1.027344 4.027344 1.027344 4.527344 0.859375 C 4.832031 0.777344 6.777344 -0.75 7.027344 -1.082031 C 7.191406 -1.304688 7.191406 -1.304688 6.972656 -1.5 C 6.636719 -1.75 6.609375 -1.75 5.609375 -1.222656 C 4.582031 -0.667969 3.886719 -0.445312 3.417969 -0.554688 C 3.109375 -0.609375 3.082031 -0.695312 2.886719 -1.472656 C 2.527344 -2.804688 2.695312 -4.136719 3.472656 -6.527344 L 3.859375 -7.691406 L 4.777344 -8.191406 C 5.886719 -8.804688 7.332031 -9.359375 9.554688 -10.054688 C 10.414062 -10.304688 11.136719 -10.554688 11.164062 -10.582031 C 11.191406 -10.609375 11.082031 -10.832031 10.914062 -11.027344 L 10.582031 -11.414062 L 9.664062 -11.25 C 9.164062 -11.191406 7.914062 -10.941406 6.914062 -10.691406 C 5.914062 -10.46875 5.082031 -10.304688 5.054688 -10.332031 C 5 -10.414062 5.972656 -12.609375 7 -14.71875 C 7.527344 -15.804688 8.109375 -17.082031 8.332031 -17.582031 L 8.722656 -18.46875 L 9.664062 -18.773438 C 10.941406 -19.21875 12.859375 -19.664062 14.109375 -19.832031 C 15.359375 -19.996094 15.46875 -20.023438 15.609375 -20.332031 C 15.691406 -20.523438 15.664062 -20.636719 15.496094 -20.914062 C 15.386719 -21.109375 15.273438 -21.300781 15.273438 -21.359375 C 15.273438 -21.578125 14.691406 -22.109375 14.246094 -22.21875 C 13.996094 -22.300781 13.027344 -22.386719 12.054688 -22.414062 C 10.5 -22.46875 10.164062 -22.441406 8.832031 -22.164062 C 6.664062 -21.746094 5.277344 -21.164062 4.695312 -20.441406 C 4.414062 -20.082031 4.386719 -20.082031 4.527344 -19.550781 C 4.636719 -19.109375 4.722656 -18.996094 4.914062 -18.996094 C 5.054688 -18.996094 5.136719 -18.941406 5.082031 -18.886719 C 5.054688 -18.800781 5.082031 -18.746094 5.164062 -18.746094 C 5.445312 -18.746094 5.195312 -18.050781 4.5 -16.773438 C 3.277344 -14.609375 2.109375 -11.96875 1.445312 -10 C 1.222656 -9.304688 1.109375 -9.109375 0.777344 -8.886719 C 0.25 -8.554688 -0.195312 -8.027344 -0.195312 -7.804688 C -0.167969 -7.527344 0.0273438 -7.222656 0.277344 -7.164062 Z M 6.664062 -14.941406 C 6.609375 -14.804688 6.554688 -14.691406 6.527344 -14.691406 C 6.5 -14.691406 6.527344 -14.804688 6.582031 -14.941406 C 6.636719 -15.082031 6.722656 -15.164062 6.75 -15.164062 C 6.777344 -15.164062 6.75 -15.082031 6.664062 -14.941406 Z M 7.25 -17.886719 C 7.277344 -17.859375 7.109375 -17.496094 6.886719 -17.109375 C 6.277344 -16.054688 4.777344 -12.941406 4.109375 -11.386719 C 3.804688 -10.664062 3.527344 -10.054688 3.472656 -10.054688 C 3.386719 -10.054688 3.582031 -10.5 4.277344 -12.136719 C 5.222656 -14.304688 7.136719 -17.996094 7.25 -17.886719 Z M 6.722656 -17.804688 C 6.777344 -17.804688 6.722656 -17.664062 6.609375 -17.46875 C 5.554688 -15.609375 3.472656 -11.21875 3.195312 -10.304688 C 3.136719 -10.109375 3.027344 -9.914062 2.972656 -9.914062 C 2.832031 -9.914062 2.859375 -9.941406 3.527344 -11.5 C 4.636719 -14.136719 6.5 -17.804688 6.722656 -17.804688 Z M 5.945312 -17.109375 C 6.109375 -17.246094 6.109375 -17.246094 5.972656 -17.054688 C 5.832031 -16.859375 5.75 -16.804688 5.75 -16.886719 C 5.75 -16.914062 5.832031 -17.023438 5.945312 -17.109375 Z M 5.554688 -16.441406 C 5.636719 -16.46875 5.609375 -16.386719 5.5 -16.21875 C 5.414062 -16.023438 5.304688 -15.886719 5.277344 -15.886719 C 5.195312 -15.886719 5.445312 -16.359375 5.554688 -16.441406 Z M 5.164062 -15.71875 C 5.222656 -15.773438 5.164062 -15.582031 5.027344 -15.304688 C 4.859375 -14.996094 4.527344 -14.246094 4.222656 -13.636719 C 3.667969 -12.441406 3.609375 -12.332031 3.609375 -12.46875 C 3.609375 -12.609375 5.054688 -15.582031 5.164062 -15.71875 Z M 2.777344 -10.554688 C 2.917969 -11 3.5 -12.304688 3.554688 -12.304688 C 3.582031 -12.304688 3.417969 -11.886719 3.222656 -11.386719 C 2.859375 -10.46875 2.582031 -9.941406 2.777344 -10.554688 Z M 2.527344 -9.96875 C 2.582031 -10.082031 2.636719 -10.136719 2.667969 -10.109375 C 2.695312 -10.082031 2.667969 -9.96875 2.582031 -9.886719 C 2.5 -9.777344 2.472656 -9.804688 2.527344 -9.96875 Z M 2.277344 -6.832031 C 2.332031 -6.914062 2.359375 -6.941406 2.359375 -6.886719 C 2.359375 -6.664062 2.195312 -6.277344 2.167969 -6.472656 C 2.167969 -6.554688 2.222656 -6.722656 2.277344 -6.832031 Z M 1.859375 -6.695312 C 1.917969 -6.695312 1.886719 -6.445312 1.804688 -6.136719 C 1.75 -5.832031 1.667969 -5.472656 1.636719 -5.332031 C 1.582031 -5.136719 1.582031 -5.136719 1.554688 -5.304688 C 1.554688 -5.636719 1.777344 -6.695312 1.859375 -6.695312 Z M 1.472656 -6.414062 C 1.472656 -6.554688 1.5 -6.582031 1.527344 -6.5 C 1.554688 -6.414062 1.554688 -6.304688 1.527344 -6.25 C 1.472656 -6.222656 1.472656 -6.277344 1.472656 -6.414062 Z M 1.472656 -6.414062 "/></g></g></g></svg>